Coordinates
version=1
nRows=19
nColumns=24
inDegrees=yes

Units are S.I. units (second, meters, Newtons, ...)
Angles are in degrees.

endheader
time	pelvis_tilt	pelvis_list	pelvis_rotation	pelvis_tx	pelvis_ty	pelvis_tz	hip_flexion_r	hip_adduction_r	hip_rotation_r	knee_angle_r	ankle_angle_r	subtalar_angle_r	mtp_angle_r	hip_flexion_l	hip_adduction_l	hip_rotation_l	knee_angle_l	ankle_angle_l	subtalar_angle_l	mtp_angle_l	lumbar_extension	lumbar_bending	lumbar_rotation
      1.20450000	     -0.64025576	     -1.25122843	     -7.38819703	      0.08088313	      0.95124537	      0.35552765	    -18.72900741	      2.53228630	     -1.75823294	    -10.00892272	     15.99643738	      6.35659816	      9.88250538	     28.89072571	     -2.34460927	     -8.85231620	     -2.64639501	      7.31512021	     -2.37781003	     -0.41782985	      0.19834204	      4.88703873	     12.27090768
      1.20866667	     -0.75090658	     -1.11729422	     -7.45920862	      0.08703555	      0.95035673	      0.35533231	    -18.81653046	      2.31660431	     -1.78111852	    -10.29605308	     15.82037982	      6.22236190	      9.90804451	     29.10606527	     -2.23166136	     -8.77506249	     -3.24525619	      7.16098341	     -2.64953960	     -0.41496193	      0.37794291	      4.72021739	     12.38884558
      1.21283333	     -0.86746937	     -0.98595424	     -7.53768473	      0.09321578	      0.94951263	      0.35512337	    -18.89997524	      2.10232812	     -1.76034829	    -10.57039281	     15.63321137	      6.16347083	     10.00934496	     29.30476203	     -2.11345477	     -8.59305052	     -3.83052488	      6.84421139	     -3.21201479	     -0.39305086	      0.56958332	      4.57833805	     12.54110405
      1.21700000	     -0.96739281	     -0.82084060	     -7.59868014	      0.09947369	      0.94872155	      0.35488347	    -18.99223885	      1.85181552	     -1.78989284	    -10.85545298	     15.38571985	      6.11940702	     10.12595388	     29.49251784	     -1.95245495	     -8.44436388	     -4.45573164	      6.50308974	     -3.71077383	     -0.36302331	      0.75486403	      4.38654564	     12.62571995
      1.22116667	     -1.07239593	     -0.64401461	     -7.65637593	      0.10576487	      0.94796108	      0.35462123	    -19.06305987	      1.58825059	     -1.82181633	    -11.16773584	     15.12501159	      6.06503054	     10.26527216	     29.69009831	     -1.77597575	     -8.29168925	     -5.11268502	      6.12097057	     -4.24061745	     -0.32363702	      0.94266537	      4.18320443	     12.71434628
      1.22533333	     -1.17445182	     -0.46669432	     -7.70621749	      0.11208464	      0.94724222	      0.35434618	    -19.12200588	      1.32538730	     -1.85783676	    -11.50900080	     14.83744146	      5.99554240	     10.44313206	     29.88726576	     -1.59274217	     -8.12419577	     -5.79340366	      5.69064439	     -4.82194464	     -0.27135504	      1.14534160	      3.96708914	     12.79906855
      1.22950000	     -1.25411036	     -0.26276426	     -7.75543460	      0.11844573	      0.94659219	      0.35406736	    -19.17976787	      1.02953422	     -1.91049713	    -11.89332792	     14.50928590	      5.86248451	     10.53029687	     30.07904697	     -1.38866162	     -8.05950248	     -6.52987441	      5.30889197	     -5.20023364	     -0.24720240	      1.31032247	      3.70876773	     12.84890892
      1.23366667	     -1.36457877	     -0.05811348	     -7.77089634	      0.12483198	      0.94594126	      0.35369301	    -19.19966612	      0.74363675	     -1.98046750	    -12.28438728	     14.24551570	      5.79940238	     11.03263628	     30.26264355	     -1.13732419	     -7.73333139	     -7.17627082	      4.70268587	     -6.11320742	     -0.09143333	      1.52418605	      3.47968678	     12.94535473
      1.23783333	     -1.52154817	      0.12333084	     -7.79819728	      0.13122618	      0.94528860	      0.35336895	    -19.16216503	      0.49339460	     -1.95986508	    -12.67620208	     13.78882592	      5.70294559	     11.27084949	     30.55035855	     -0.94765679	     -7.61312669	     -7.95719739	      4.17671074	     -6.59054263	     -0.02266019	      1.78941232	      3.28538318	     13.01644548
      1.24200000	     -1.60552479	      0.36096826	     -7.79504783	      0.13767745	      0.94475943	      0.35295032	    -19.15812640	      0.16912610	     -2.07079658	    -13.16181969	     13.46693158	      5.53426958	     12.00834531	     30.71744296	     -0.65239031	     -7.35789817	     -8.64377914	      3.57588733	     -7.36918619	      0.19776743	      1.97940258	      2.99198066	     13.08469909
      1.24616667	     -1.73494294	      0.57281023	     -7.81454598	      0.14413575	      0.94424185	      0.35260480	    -19.10374797	     -0.11699977	     -2.05947013	    -13.62810178	     12.91355148	      5.38416005	     12.14935216	     30.98260953	     -0.43183184	     -7.34075662	     -9.45307096	      3.04954985	     -7.65480066	      0.23299095	      2.20898518	      2.75390612	     13.12261121
      1.25033333	     -1.86291736	      0.79693389	     -7.79808455	      0.15060805	      0.94374646	      0.35214254	    -19.00579619	     -0.42545789	     -2.17872306	    -14.17386266	     12.39975763	      5.30498277	     17.25603009	     31.21875826	     -0.15066416	     -7.12334237	    -10.19495658	      2.38948816	     -8.39407416	      1.63721223	      2.46004281	      2.49570378	     13.16974811
      1.25450000	     -2.00027305	      1.00649750	     -7.77466983	      0.15710609	      0.94332109	      0.35171805	    -18.91135629	     -0.69151080	     -2.14234413	    -14.69449072	     11.84249384	      5.02905886	     17.30389269	     31.47668275	      0.10611124	     -6.97249666	    -10.98121683	      1.81662770	     -8.89933196	      1.62813283	      2.72029395	      2.25294929	     13.24674621
      1.25866667	     -2.12880291	      1.24429677	     -7.74033616	      0.16362675	      0.94295019	      0.35125621	    -18.78673891	     -0.99114111	     -2.14801717	    -15.28382573	     11.27738350	      4.80327277	     17.39179714	     31.72142211	      0.39920215	     -6.83526007	    -11.75886657	      1.24812718	     -9.38502859	      1.62670480	      2.97229667	      1.97278236	     13.29459930
      1.26283333	     -2.24882049	      1.48227929	     -7.69693740	      0.17015086	      0.94263766	      0.35076152	    -18.63883812	     -1.29412621	     -2.16684313	    -15.92717271	     10.68043555	      4.59447550	     17.52764531	     31.95436345	      0.70171421	     -6.68447660	    -12.53639206	      0.70102009	     -9.87245297	      1.63175479	      3.21299329	      1.69623773	     13.33768083
      1.26700000	     -2.36695645	      1.73009034	     -7.64039901	      0.17669693	      0.94238046	      0.35023483	    -18.46478849	     -1.60515093	     -2.18797479	    -16.61395133	     10.03274671	      4.39052703	     17.70884039	     32.17975339	      1.02229236	     -6.53832377	    -13.30906340	      0.18167764	    -10.32834225	      1.64120100	      3.45368058	      1.40757647	     13.37641443
      1.27116667	     -2.46548041	      2.01249524	     -7.57261770	      0.18325117	      0.94219157	      0.34964436	    -18.26074158	     -1.96339979	     -2.26425095	    -17.39415767	      9.42737987	      4.18169812	     18.30482530	     32.36046860	      1.40130643	     -6.32988350	    -14.03068287	     -0.31286347	    -10.90800592	      1.68521028	      3.66611499	      1.08042721	     13.41964019
      1.27533333	     -2.53150268	      2.26895076	     -7.51026204	      0.18982922	      0.94210957	      0.34912693	    -18.08601656	     -2.28810605	     -2.27061877	    -18.16485416	      8.63201950	      3.95447790	     18.40989942	     32.53018075	      1.71986051	     -6.31537276	    -14.82485662	     -0.67764254	    -11.03695783	      1.68849747	      3.85445066	      0.76248629	     13.43107766
      1.27950000	     -2.66772138	      2.49885397	     -7.41958953	      0.19635470	      0.94197858	      0.34851770	    -17.80337225	     -2.56903456	     -2.25562906	    -18.98674848	      7.81173282	      3.77856518	     18.71106336	     32.77173547	      2.03995155	     -6.15847034	    -15.61285831	     -1.11186267	    -11.47166738	      1.69786556	      4.10366192	      0.51698468	     13.47341869
